<?xml version="1.0" encoding="UTF-8"?>
<svg id="Camada_4" data-name="Camada 4" xmlns="http://www.w3.org/2000/svg" xmlns:xlink="http://www.w3.org/1999/xlink" viewBox="0 0 716.82 623.09">
  <defs>
    <style>
      .cls-1 {
        stroke-width: .95px;
      }

      .cls-1, .cls-2, .cls-3, .cls-4, .cls-5, .cls-6, .cls-7, .cls-8, .cls-9, .cls-10, .cls-11, .cls-12, .cls-13, .cls-14, .cls-15, .cls-16, .cls-17 {
        stroke-miterlimit: 10;
      }

      .cls-1, .cls-8, .cls-13, .cls-14, .cls-15 {
        stroke: #fff;
      }

      .cls-1, .cls-8, .cls-13, .cls-15 {
        fill: #cc5d11;
      }

      .cls-2 {
        fill: #6d8cf2;
        stroke: #6d8cf2;
      }

      .cls-2, .cls-10 {
        font-family: BebasNeue-Bold, 'Bebas Neue';
        font-size: 75.82px;
        font-weight: 700;
      }

      .cls-3 {
        fill: url(#Gradiente_sem_nome_16);
        stroke: #1d1d1b;
        stroke-width: 6.75px;
      }

      .cls-4 {
        stroke-width: 7.08px;
      }

      .cls-4, .cls-7, .cls-11, .cls-17 {
        fill: #efefef;
        stroke: #efefef;
      }

      .cls-5 {
        fill: url(#Gradiente_sem_nome_22-2);
      }

      .cls-5, .cls-6, .cls-9 {
        stroke-width: .21px;
      }

      .cls-5, .cls-9 {
        stroke: #ccc;
      }

      .cls-18 {
        fill: url(#Gradiente_sem_nome_3);
      }

      .cls-6 {
        fill: url(#Gradiente_sem_nome_22);
        stroke: #494949;
      }

      .cls-7 {
        stroke-width: 4.63px;
      }

      .cls-8 {
        stroke-width: 1.03px;
      }

      .cls-9 {
        fill: url(#Gradiente_sem_nome_22-3);
      }

      .cls-10 {
        fill: #051b6d;
        stroke: #051b6d;
      }

      .cls-11 {
        stroke-width: 7.56px;
      }

      .cls-12 {
        fill: #97a3ce;
        stroke: #97a3ce;
        stroke-width: 9.9px;
      }

      .cls-14 {
        fill: #7f3b0d;
      }

      .cls-15 {
        stroke-width: .99px;
      }

      .cls-16 {
        fill: #121728;
        stroke: #121728;
        stroke-width: 9.37px;
      }

      .cls-17 {
        stroke-width: .07px;
      }
    </style>
    <linearGradient id="Gradiente_sem_nome_16" data-name="Gradiente sem nome 16" x1="56.56" y1="299.37" x2="690.02" y2="299.37" gradientUnits="userSpaceOnUse">
      <stop offset="0" stop-color="#2a4bc4"/>
      <stop offset="1" stop-color="#051b6d"/>
    </linearGradient>
    <linearGradient id="Gradiente_sem_nome_22" data-name="Gradiente sem nome 22" x1="372.29" y1="98.99" x2="380.01" y2="98.99" gradientUnits="userSpaceOnUse">
      <stop offset="0" stop-color="#e96e00"/>
      <stop offset="1" stop-color="#ff4f15"/>
    </linearGradient>
    <linearGradient id="Gradiente_sem_nome_22-2" data-name="Gradiente sem nome 22" x1="365.27" y1="146.12" x2="373.29" y2="146.12" xlink:href="#Gradiente_sem_nome_22"/>
    <linearGradient id="Gradiente_sem_nome_22-3" data-name="Gradiente sem nome 22" x1="379.14" y1="146.33" x2="386.78" y2="146.33" xlink:href="#Gradiente_sem_nome_22"/>
    <linearGradient id="Gradiente_sem_nome_3" data-name="Gradiente sem nome 3" x1="243.49" y1="547.15" x2="544.54" y2="547.15" gradientUnits="userSpaceOnUse">
      <stop offset="0" stop-color="#051b6d"/>
      <stop offset="1" stop-color="#2a4bc4"/>
    </linearGradient>
  </defs>
  <path class="cls-3" d="m77.3,586.53c-16.09.2-25.98-17.31-17.8-31.53l150.36-261.34L368.29,18.28c4.59-7.98,15.89-8.13,20.33-.26l153.24,271.43,145.43,257.6c7.91,14.01-2.31,31.79-18.4,31.99l-295.79,3.74-295.79,3.74Z"/>
  <ellipse class="cls-11" cx="389.37" cy="398.82" rx="14.44" ry="17.33"/>
  <path class="cls-11" d="m397.28,386.45c0,9.14-6.41,16.56-14.32,16.56-3.5,0-6.71-1.46-9.2-3.88-.56.09-1.14.13-1.72.13-7.9,0-14.31-7.41-14.31-16.56s6.38-16.52,14.25-16.56c-4.27-2.85-7.15-8.2-7.15-14.33,0-5.65,2.45-10.65,6.19-13.63-2.35-2.95-3.78-6.88-3.78-11.2,0-1.41.15-2.77.44-4.08-.15.01-.29.01-.44.01-7.9,0-14.31-7.41-14.31-16.56,0-7.03,3.79-13.04,9.13-15.44.81.56,1.67,1.02,2.58,1.38.48-.88,1.04-1.7,1.67-2.46-1.49.1-2.92.48-4.25,1.08-4.24-2.87-7.09-8.2-7.09-14.29,0-8.28,5.25-15.14,12.1-16.36-.88-2.14-1.37-4.54-1.37-7.07,0-8.34,5.34-15.25,12.28-16.39-1.72-1.44-3.16-3.31-4.18-5.48-1.85,6.67-7.26,11.49-13.64,11.49-7.9,0-14.31-7.41-14.31-16.56,0-8.38,5.38-15.3,12.35-16.4-2.02-2.85-3.23-6.5-3.23-10.48,0-9.15,6.41-16.56,14.31-16.56.48,0,.96.03,1.44.09,1.35-3.73,3.53-6.15,5.98-6.15,4.1,0,7.42,6.73,7.42,15.03,0,2.09-.21,4.08-.59,5.89.05.56.07,1.13.07,1.7,0,3.05-.71,5.91-1.95,8.36,1.47-.6,3.06-.92,4.71-.92,7.91,0,14.32,7.41,14.32,16.56,0,8.35-5.34,15.26-12.29,16.39,3.6,3.01,5.94,7.91,5.94,13.43,0,8.28-5.24,15.13-12.1,16.36.88,2.15,1.37,4.54,1.37,7.07,0,3.29-.83,6.35-2.26,8.93,5.63,2.22,9.68,8.4,9.68,15.67,0,4.1-1.29,7.85-3.43,10.74,4.9,2.63,8.29,8.37,8.29,15.02,0,5.66-2.45,10.65-6.19,13.63,2.34,2.95,3.77,6.88,3.77,11.2,0,9.12-6.37,16.52-14.25,16.56.72.47,1.41,1.03,2.04,1.65.56-.09,1.13-.13,1.71-.13,7.91,0,14.32,7.41,14.32,16.56Z"/>
  <ellipse class="cls-11" cx="376.38" cy="165.5" rx="1.44" ry="8.37"/>
  <path class="cls-11" d="m366.31,289.83c-.63.76-1.19,1.58-1.67,2.46-.91-.36-1.77-.82-2.58-1.38,1.33-.6,2.76-.98,4.25-1.08Z"/>
  <path class="cls-11" d="m366.31,289.83c-.63.76-1.19,1.58-1.67,2.46-.91-.36-1.77-.82-2.58-1.38,1.33-.6,2.76-.98,4.25-1.08Z"/>
  <path class="cls-16" d="m454.61,450.57c0,16.7-15.43,30.24-34.45,30.24-3.15,0-6.2-.37-9.1-1.08.03.36.04.71.04,1.08,0,16.7-15.42,30.25-34.44,30.25-7.06,0-13.64-1.87-19.11-5.08-3.95,12.88-17.34,22.36-33.25,22.36-5.46,0-10.62-1.11-15.2-3.1-3.53,13.39-17.2,23.37-33.53,23.37-19.02,0-34.44-13.55-34.44-30.25s15.42-30.24,34.44-30.24c5.46,0,10.61,1.11,15.19,3.09,3.53-13.39,17.21-23.36,33.54-23.36,7.06,0,13.63,1.87,19.1,5.07,3.95-12.88,17.35-22.35,33.26-22.35,3.15,0,6.2.37,9.1,1.08-.03-.36-.04-.71-.04-1.08,0-16.7,15.42-30.24,34.44-30.24s34.45,13.54,34.45,30.24Z"/>
  <path class="cls-16" d="m226.54,458.27c0,16.7-15.43,30.24-34.45,30.24-3.15,0-6.2-.37-9.1-1.08.03.36.04.71.04,1.08,0,16.7-15.42,30.25-34.44,30.25-7.06,0-13.64-1.87-19.11-5.08-3.95,12.88-17.34,22.36-33.25,22.36-5.46,0-10.62-1.11-15.2-3.1-3.53,13.39-17.2,23.37-33.53,23.37-19.02,0-34.44-13.55-34.44-30.25s15.42-30.24,34.44-30.24c5.46,0,10.61,1.11,15.19,3.09,3.53-13.39,17.21-23.36,33.54-23.36,7.06,0,13.63,1.87,19.1,5.07,3.95-12.88,17.35-22.35,33.26-22.35,3.15,0,6.2.37,9.1,1.08-.03-.36-.04-.71-.04-1.08,0-16.7,15.42-30.24,34.44-30.24s34.45,13.54,34.45,30.24Z"/>
  <path class="cls-16" d="m273.59,491.09c0,16.7-15.43,30.24-34.45,30.24-3.15,0-6.2-.37-9.1-1.08.03.36.04.71.04,1.08,0,16.7-15.42,30.25-34.44,30.25-7.06,0-13.64-1.87-19.11-5.08-3.95,12.88-17.34,22.36-33.25,22.36-5.46,0-10.62-1.11-15.2-3.1-3.53,13.39-17.2,23.37-33.53,23.37-19.02,0-34.44-13.55-34.44-30.25s15.42-30.24,34.44-30.24c5.46,0,10.61,1.11,15.19,3.09,3.53-13.39,17.21-23.36,33.54-23.36,7.06,0,13.63,1.87,19.1,5.07,3.95-12.88,17.35-22.35,33.26-22.35,3.15,0,6.2.37,9.1,1.08-.03-.36-.04-.71-.04-1.08,0-16.7,15.42-30.24,34.44-30.24s34.45,13.54,34.45,30.24Z"/>
  <path class="cls-16" d="m703.78,552.5c0,19.29-17.41,34.92-38.88,34.92s-38.87-15.63-38.87-34.92c-21.41,0-38.76-15.55-38.87-34.75-6.68,4.88-15.2,7.8-24.48,7.8-21.47,0-38.87-15.64-38.87-34.93,0-1.42.09-2.82.28-4.19-5.49,2.68-11.79,4.19-18.48,4.19-21.47,0-38.88-15.64-38.88-34.93s17.41-34.93,38.88-34.93,38.87,15.64,38.87,34.93c0,1.42-.09,2.82-.28,4.19,5.49-2.68,11.79-4.19,18.48-4.19,21.41,0,38.76,15.55,38.87,34.75,6.68-4.88,15.2-7.8,24.48-7.8,21.47,0,38.87,15.64,38.87,34.93,21.47,0,38.88,15.64,38.88,34.93Z"/>
  <g>
    <path class="cls-13" d="m520.52,422.46s-15.3-2.92-23.76,0l-.9-39.74h23.04l1.62,39.74Z"/>
    <path class="cls-13" d="m468.32,385.96l1.62,38.34s-14.4,3.24-19.98,7.38l-1.98-37.08,20.34-8.64Z"/>
    <g>
      <path class="cls-8" d="m446.9,509.56l-5.28-107.76s-.56-.26-1.28-.84c-1.96-1.61-5.04-5.7-.64-13.8,0,0-12.09-10.8,2.48-24,0,0,.4-18.72,30.88-27.12,0,0,1.68-5.04,6.96-4.8,5.28.24,7.36,2.4,7.36,2.4,0,0,32,.24,36.32,22.32,0,0,10.32,7.44,7.44,19.68l.51,3.84s3.63,9.12,0,13.44l-1.47,1.44,8.88,110.16s-55.68-9.6-87.84,3.6l-4.32,1.44Z"/>
      <path class="cls-8" d="m442.18,363.16s33.4-27.96,81.52-7.2"/>
      <path class="cls-8" d="m439.7,387.16s35.88-35.23,91.8-8.8"/>
    </g>
    <polygon class="cls-13" points="451.8 405.77 457.75 423.56 452.62 425.29 451.8 405.77"/>
    <polygon class="cls-13" points="451.31 399.19 463.1 394.54 464.33 420.51 456.03 424.03 451.87 407.13 451.31 399.19"/>
    <polyline class="cls-13" points="515.44 392.35 515.44 414.9 506.8 414.9"/>
    <polygon class="cls-15" points="461.73 394.24 451.13 398.56 452.19 425.56 464.9 420.39 463.49 393.34 461.73 394.24"/>
    <polygon class="cls-14" points="507.32 414.9 516.08 391.7 516.08 387.64 500.54 387.64 501.94 414.9 507.32 414.9"/>
    <polygon class="cls-1" points="500 387.94 515.84 387.94 515.84 415.12 501.35 415.3 500 387.94"/>
    <path class="cls-8" d="m531.18,375.89s-7.59-14.23-37.74-14.23c0,0-20.34-1.74-37.48,6.87,0,0-13.52,5.73-20.42,11.76"/>
    <path class="cls-8" d="m531.5,372.5s-7.87-15.07-38.02-15.07c0,0-20.34-1.74-37.49,6.87,0,0-14.1,6.06-21,12.09"/>
  </g>
  <path class="cls-4" d="m573.13,537.67c0,19.29-17.41,34.92-38.88,34.92s-38.87-15.63-38.87-34.92c-21.41,0-38.76-15.55-38.87-34.75-6.68,4.88-15.2,7.8-24.48,7.8-21.47,0-38.87-15.64-38.87-34.93,0-1.42.09-2.82.28-4.19-5.49,2.68-11.79,4.19-18.48,4.19-21.47,0-38.88-15.64-38.88-34.93s17.43-35.81,38.88-34.93c25.98,1.06,39.62,15.82,38.87,34.93-.06,1.42-.09,2.82-.28,4.19,5.49-2.68,11.79-4.19,18.48-4.19,21.41,0,38.76,15.55,38.87,34.75,6.68-4.88,15.2-7.8,24.48-7.8,21.47,0,38.87,15.64,38.87,34.93,21.47,0,38.88,15.64,38.88,34.93Z"/>
  <g id="fumaça1">
    <path class="cls-12" d="m582.17,517.77c-3.77,0-7.43.33-10.95.98.01-.32.01-.64.01-.98,0-20.77-21.62-37.6-48.3-37.6-13.57,0-25.84,4.36-34.61,11.38-1.17.94-2.99.77-3.92-.36-8.57-10.48-23.62-17.42-40.76-17.42-1.29,0-2.58.04-3.84.11-.99.06-1.93-.36-2.46-1.09-8.3-11.36-24-19.02-42-19.02-6.14,0-12.02.89-17.43,2.52-1.75.53-3.55-.59-3.53-2.22,0-.1,0-.2,0-.3,0-20.77-21.62-37.6-48.3-37.6s-48.3,16.84-48.3,37.6c0,4.22.89,8.28,2.54,12.06.66,1.52-.64,3.14-2.49,3.14h-.04c-23.2,0-42.59,12.74-47.24,29.73-.31,1.12-1.51,1.89-2.82,1.75-2.11-.22-4.26-.33-6.45-.33-19.63,0-36.53,9.11-44.08,22.2-.67,1.16-2.29,1.61-3.59.99-7.34-3.51-15.98-5.53-25.24-5.53-26.68,0-48.3,16.84-48.3,37.6s20.29,36.55,45.82,37.56c1.4.06,2.48,1.08,2.48,2.31h0c0,9.36,8.64,16.94,19.3,16.94h400.94c11.01,0,19.94-7.84,19.94-17.51h0c0-1.13.92-2.1,2.19-2.28,22.6-3.15,39.73-18.53,39.73-37.02,0-20.77-21.62-37.6-48.3-37.6Zm-256.09-26.4h-4.11c-.03-.06-.05-.1-.08-.14,1.38.1,2.77.14,4.19.14Zm69.26,37.6c1.85,0,3.67-.08,5.46-.23.05.08.1.16.16.23h-5.62Z"/>
  </g>
  <polygon class="cls-4" points="238.12 366.7 231.08 363.78 224.68 367.92 225.28 360.32 219.36 355.52 226.78 353.74 229.52 346.63 233.5 353.13 241.11 353.54 236.16 359.34 238.12 366.7"/>
  <polygon class="cls-7" points="275.07 379.78 270.46 377.86 266.27 380.57 266.67 375.6 262.8 372.45 267.65 371.29 269.44 366.64 272.05 370.89 277.03 371.16 273.79 374.95 275.07 379.78"/>
  <g>
    <path class="cls-6" d="m376.54,43.02s-2.75,5.55-3.15,16.84l-.1,79.79-1,2v5.5l1.1.5-.1,3.1.6,3.6s1.6,2,5.1.6l.85-4.05-.62-.55.02-2.45.77-.05-.15-6.37-.85-2,.45-.22-.55-78.52s-.89-16.43-2.17-18.2l-.21.49Z"/>
    <polyline class="cls-5" points="373.29 139.65 365.47 149.3 365.27 150.04 365.27 152.59 373.29 149.85"/>
    <polyline class="cls-9" points="379.14 139.41 386.78 150.47 386.78 153.24 379.32 150.72"/>
  </g>
  <polygon class="cls-17" points="458.96 232.36 462.64 239.09 469.37 242.77 462.64 246.45 458.96 253.18 455.29 246.45 448.56 242.77 455.29 239.09 458.96 232.36"/>
  <polygon class="cls-17" points="335.44 105.75 339.12 112.48 345.85 116.16 339.12 119.84 335.44 126.56 331.76 119.84 325.03 116.16 331.76 112.48 335.44 105.75"/>
  <polygon class="cls-17" points="308.95 198.87 312.63 205.6 319.36 209.28 312.63 212.96 308.95 219.68 305.27 212.96 298.55 209.28 305.27 205.6 308.95 198.87"/>
  <polygon class="cls-17" points="554.71 376.75 558.39 383.48 565.12 387.16 558.39 390.84 554.71 397.56 551.03 390.84 544.31 387.16 551.03 383.48 554.71 376.75"/>
  <polygon class="cls-17" points="422.23 299.37 425.91 306.1 432.64 309.78 425.91 313.46 422.23 320.18 418.55 313.46 411.83 309.78 418.55 306.1 422.23 299.37"/>
  <g>
    <g>
      <path class="cls-18" d="m266.13,543.1v7.58h-10.77v21.91h-8.34v-53.07h22.06v7.58h-13.72v16h10.77Z"/>
      <path class="cls-18" d="m275.68,522.4c2.17-2.32,5.31-3.49,9.4-3.49s7.23,1.16,9.4,3.49c2.17,2.33,3.26,5.61,3.26,9.86v27.6c0,4.25-1.09,7.53-3.26,9.86-2.17,2.33-5.31,3.49-9.4,3.49s-7.23-1.16-9.4-3.49c-2.17-2.32-3.26-5.61-3.26-9.86v-27.6c0-4.25,1.09-7.53,3.26-9.86Zm9.4,43.22c2.88,0,4.32-1.74,4.32-5.23v-28.66c0-3.49-1.44-5.23-4.32-5.23s-4.32,1.74-4.32,5.23v28.66c0,3.49,1.44,5.23,4.32,5.23Z"/>
      <path class="cls-18" d="m319.96,570.16c-.1-.76-.15-2.12-.15-4.09v-8.34c0-2.43-.43-4.16-1.29-5.19-.86-1.04-2.25-1.55-4.17-1.55h-2.88v21.61h-8.34v-53.07h12.59c4.3,0,7.43,1,9.4,3,1.97,2,2.96,5.07,2.96,9.21v4.17c0,5.46-1.82,9.05-5.46,10.77,1.97.81,3.39,2.16,4.25,4.06.86,1.9,1.29,4.31,1.29,7.24v8.19c0,1.52.05,2.74.15,3.68.1.94.35,1.86.76,2.77h-8.49c-.3-.86-.51-1.67-.61-2.43Zm-8.49-26.76h3.26c1.67,0,2.92-.43,3.75-1.29s1.25-2.3,1.25-4.32v-5.23c0-1.92-.34-3.31-1.02-4.17-.68-.86-1.76-1.29-3.22-1.29h-4.02v16.3Z"/>
      <path class="cls-18" d="m356.96,519.52v7.58h-8.72v45.49h-8.34v-45.49h-8.72v-7.58h25.78Z"/>
      <path class="cls-18" d="m380.39,541.88v7.58h-11.45v15.54h14.41v7.58h-22.75v-53.07h22.75v7.58h-14.41v14.79h11.45Z"/>
      <path class="cls-18" d="m418.83,572.59l-1.44-9.63h-10.24l-1.44,9.63h-7.66l8.49-53.07h12.21l8.49,53.07h-8.42Zm-2.58-16.83l-4.02-26.84-4.02,26.84h8.04Z"/>
      <path class="cls-18" d="m445.9,542.26v7.58h-15.16v-7.58h15.16Z"/>
      <path class="cls-18" d="m461.55,525.32c1.19-.58,2.07-1.33,2.65-2.24.58-.91,1.15-2.1,1.71-3.56h5.61v53.07h-8.34v-40.49h-6.44v-5.91c2.02,0,3.63-.29,4.81-.87Z"/>
      <path class="cls-18" d="m491.58,525.32c1.19-.58,2.07-1.33,2.65-2.24.58-.91,1.15-2.1,1.71-3.56h5.61v53.07h-8.34v-40.49h-6.44v-5.91c2.02,0,3.63-.29,4.81-.87Z"/>
    </g>
  </g>
</svg>