<?xml version="1.0" encoding="UTF-8"?>
<svg id="Camada_2" data-name="Camada 2" xmlns="http://www.w3.org/2000/svg" viewBox="0 0 500 500">
  <defs>
    <style>
      .cls-1 {
        fill: #fff;
      }

      .cls-2 {
        fill: #e65a39;
        stroke: #020202;
        stroke-miterlimit: 10;
        stroke-width: .75px;
      }
    </style>
  </defs>
  <path class="cls-1" d="m242.51,0c-98.07,184.21-107.17,422.61-107.43,498.56l1.38.04c4.04-64.74,22.53-247.23,106.05-406.92,77.73,129.33,101.36,342.74,106.92,407.49.06.74,1.16.68,1.15-.06-1.88-74.48-15.11-346.99-108.07-499.11Z"/>
  <path class="cls-2" d="m135.77,498.55s22.99-134.4,116.21-242.02l11,10.31s-78.83,68.89-127.21,231.71"/>
  <path class="cls-2" d="m363.18,147.97c.02-.26-.03-.53-.18-.77-.29-.43-.79-.61-1.25-.51h0c-22.65,1.93-41.28,9.36-51.24,22.12-11.1,14.21-24.83,30.25-30.63,37.33-1.01,1.24-2.52,1.95-4.12,1.95h-11.78c-1.09,0-2.12.45-2.86,1.25l-16.84,18.21c-.75.81-.18,2.12.92,2.13l13.25.14c1.43.02,2.43,1.42,1.98,2.78l-1.94,5.84c-.31.92-.11,1.94.52,2.68l17.28,15.66c.79.58,1.81.7,2.72.33l5.68-2.35c1.32-.55,2.79.35,2.91,1.78l1.09,13.21c.09,1.1,1.44,1.57,2.19.76l16.97-18.09c.74-.79,1.12-1.86,1.05-2.94l-.84-11.75c-.11-1.59.49-3.15,1.65-4.25,6.65-6.29,21.68-21.12,35.06-33.21,12.01-10.85,18.13-29.55,18.45-52.28l-.02-.02Z"/>
</svg>